<?xml version="1.0" standalone="no"?><!DOCTYPE svg PUBLIC "-//W3C//DTD SVG 1.1//EN" "http://www.w3.org/Graphics/SVG/1.1/DTD/svg11.dtd"><svg class="icon" width="200px" height="109.40px" viewBox="0 0 1872 1024" version="1.1" xmlns="http://www.w3.org/2000/svg"><path d="M1818.333184 731.428571h-1784.685714l234.057143-702.171428h1316.571428l234.057143 702.171428z" fill="#FFFFFF" /><path d="M29.258898 731.428571h1813.942857v263.314286H29.258898z" fill="#D1EBF2" /><path d="M1813.944613 1024H58.516041a58.514286 58.514286 0 0 1-58.514286-58.514286v-229.961143a58.514286 58.514286 0 0 1 2.048-15.798857L229.670327 41.252571A58.514286 58.514286 0 0 1 285.55147 0h1302.235428a58.514286 58.514286 0 0 1 55.588572 40.667429l226.157714 677.302857a55.881143 55.881143 0 0 1 2.925714 18.139428V965.485714a58.514286 58.514286 0 0 1-58.514285 58.514286zM285.55147 58.514286L58.516041 736.987429V965.485714h1755.428572v-229.376L1587.786898 58.514286z" fill="#007FB7" /><path d="M365.716041 863.085714m-43.885714 0a43.885714 43.885714 0 1 0 87.771428 0 43.885714 43.885714 0 1 0-87.771428 0Z" fill="#007FB7" /><path d="M1178.47947 566.418286H1053.258898a107.666286 107.666286 0 0 1-97.718857-62.902857l-108.251428-234.057143a49.444571 49.444571 0 0 0-44.763429-29.257143h-149.504a29.257143 29.257143 0 0 1 0-58.514286h149.796571a107.958857 107.958857 0 0 1 98.011429 62.610286l107.958857 234.057143a50.029714 50.029714 0 0 0 44.763429 29.257143h124.928a29.257143 29.257143 0 0 1 0 58.514285z" fill="#007FB7" /><path d="M1178.47947 629.028571v-184.027428a5.851429 5.851429 0 0 1 10.24-4.096l91.867428 91.867428a6.144 6.144 0 0 1 0 8.484572l-91.867428 91.867428a5.851429 5.851429 0 0 1-10.24-4.096zM802.817755 567.003429h-149.796571a29.257143 29.257143 0 0 1 0-58.514286h149.796571a49.444571 49.444571 0 0 0 44.763429-29.257143l108.251429-234.057143A107.666286 107.666286 0 0 1 1053.258898 182.857143h124.928a29.257143 29.257143 0 0 1 0 58.514286H1053.258898a50.029714 50.029714 0 0 0-44.763428 29.257142l-107.958857 234.057143a107.958857 107.958857 0 0 1-97.718858 62.317715z" fill="#007FB7" /><path d="M1178.47947 124.928v175.542857a7.899429 7.899429 0 0 0 13.458285 5.558857l87.771429-87.771428a6.144 6.144 0 0 0 0-8.484572l-87.771429-87.771428a7.899429 7.899429 0 0 0-13.458285 2.925714zM29.258898 731.428571h1813.942857v29.257143H29.258898z" fill="#007FB7" /></svg>